<svg xmlns="http://www.w3.org/2000/svg" version="1.1" xmlns:xlink="http://www.w3.org/1999/xlink" xmlns:svgjs="http://svgjs.dev/svgjs" width="1440" height="560" preserveAspectRatio="none" viewBox="0 0 1440 560"><g mask="url(&quot;#SvgjsMask1016&quot;)" fill="none"><rect width="1440" height="560" x="0" y="0" fill="url(&quot;#SvgjsLinearGradient1017&quot;)"></rect><path d="M1440 0L815.16 0L1440 275.9z" fill="rgba(255, 255, 255, .1)"></path><path d="M815.16 0L1440 275.9L1440 360.91999999999996L384.41999999999996 0z" fill="rgba(255, 255, 255, .075)"></path><path d="M384.4200000000001 0L1440 360.91999999999996L1440 463.03999999999996L221.54000000000008 0z" fill="rgba(255, 255, 255, .05)"></path><path d="M221.53999999999996 0L1440 463.03999999999996L1440 489.84L162.41999999999996 0z" fill="rgba(255, 255, 255, .025)"></path><path d="M0 560L608.99 560L0 551.24z" fill="rgba(0, 0, 0, .1)"></path><path d="M0 551.24L608.99 560L770.41 560L0 375.21000000000004z" fill="rgba(0, 0, 0, .075)"></path><path d="M0 375.21000000000004L770.41 560L800.27 560L0 218.45000000000005z" fill="rgba(0, 0, 0, .05)"></path><path d="M0 218.45000000000005L800.27 560L1051.63 560L0 206.55000000000004z" fill="rgba(0, 0, 0, .025)"></path></g><defs><mask id="SvgjsMask1016"><rect width="1440" height="560" fill="#ffffff"></rect></mask><linearGradient x1="15.28%" y1="-39.29%" x2="84.72%" y2="139.29%" gradientUnits="userSpaceOnUse" id="SvgjsLinearGradient1017"><stop stop-color="#0e2a47" offset="0"></stop><stop stop-color="rgba(0, 91, 208, 1)" offset="1"></stop></linearGradient></defs></svg>