<?xml version="1.0" encoding="utf-8"?>
<!-- Generator: Adobe Illustrator 23.0.5, SVG Export Plug-In . SVG Version: 6.00 Build 0)  -->
<svg version="1.1" id="Layer_1" xmlns="http://www.w3.org/2000/svg" xmlns:xlink="http://www.w3.org/1999/xlink" x="0px" y="0px"
	 viewBox="0 0 1500 1500" style="enable-background:new 0 0 1500 1500;" xml:space="preserve">
<style type="text/css">
	.st0{fill:#3D63AB;}
	.st1{fill:#101111;}
</style>
<g>
	<path class="st0" d="M1349.92,654.5c-2.29,1.14-4.3,0.74-6.24,0.74c-42.52,0.02-85.04-0.07-127.55,0.15
		c-4.81,0.03-6.74-1.48-8.08-5.96c-9.95-33.18-20.16-66.28-30.3-99.39c-0.17-0.56-0.52-1.07-1.45-2.94
		c-3.22,10.39-6.13,19.65-8.96,28.93c-7.56,24.73-15.14,49.45-22.57,74.21c-1.08,3.61-2.6,5.15-6.74,5.13
		c-42.3-0.18-84.59-0.1-126.89-0.13c-5.26,0-6.46-2.15-4.28-6.74c4.91-10.35,9.3-20.86,12.76-31.87c2.67-8.48,5.61-17.09,9.91-25.05
		c3.83-7.09,5.07-15.13,7.96-22.59c1.77-4.57,4.02-8.94,5.45-13.67c3.96-13.1,9.66-25.55,14.45-38.34
		c4.26-11.39,8.25-22.93,12.37-34.4c7.28-20.27,15.3-40.26,23.28-60.27c1.31-3.28,2.94-4.3,6.26-4.29
		c52.87,0.07,105.74,0.1,158.61-0.05c4.24-0.01,4.94,2.48,6.02,5.39c7.81,21.02,15.68,42.01,23.5,63.02
		c4.93,13.24,9.16,26.79,14.94,39.64c3.97,8.83,7.01,18.09,10.54,26.99c3.79,9.53,6.86,19.7,10.43,29.5
		c7.66,21.03,15.81,41.89,23.71,62.84C1348.18,648.35,1348.98,651.49,1349.92,654.5z"/>
	<path class="st0" d="M741.81,654.5c-2.97,1.11-5.37,0.73-7.68,0.73c-44.7,0.03-89.4-0.05-134.1,0.11c-5.55,0.02-10.4-0.1-13.15-6
		c-0.58-1.24-1.88-3.44-3.83-2.61c-1.9,0.82-1.73,2.71-0.8,4.52c1.39,2.74-0.6,3.5-2.65,3.9c-1.28,0.25-2.63,0.09-3.95,0.09
		c-44.04,0-88.08-0.05-132.12,0.07c-4.15,0.01-5.28-0.8-6.43-5.38c-1.61-6.39,0.52-12.06,0.51-18.04
		c-0.13-68.92-0.08-137.84-0.07-206.76c0-7.05,0.01-7.08,7.12-7.08c43.16-0.01,86.32,0.08,129.47-0.11
		c4.75-0.02,7.68,1.47,10.2,5.37c5.92,9.15,12.23,18.06,18.15,27.23c9.02,13.97,18.23,27.85,28.12,41.21
		c7.47,10.09,14.57,20.52,21.49,30.89c8.43,12.63,17.05,25.18,25.39,37.89c8.8,13.42,18,26.58,27.01,39.86
		c8.69,12.79,17.32,25.62,26.06,38.37C734.09,643.94,737.83,648.95,741.81,654.5z"/>
	<path class="st1" d="M198.25,536.14c0,37.65-0.08,75.29,0.11,112.94c0.02,4.68-0.74,6.26-5.95,6.23
		c-47.33-0.25-94.66-0.22-142-0.03c-4.76,0.02-5.62-1.43-5.61-5.88c0.15-75.29,0.17-150.58-0.03-225.88c-0.01-5.28,1.67-6,6.33-5.98
		c47.11,0.17,94.22,0.21,141.33-0.05c5.39-0.03,5.94,1.82,5.92,6.37C198.18,461.28,198.25,498.71,198.25,536.14z"/>
	<path class="st0" d="M766.41,536.39c0.01-37-0.02-74,0.03-111c0.01-7.12-1.51-7.32,6.91-7.32c43.83,0,87.66,0,131.48,0.01
		c7.07,0,7.08,0.04,7.08,7.39c0,74.22,0,148.44,0,222.66c0,7.12-0.01,7.13-7.1,7.13c-43.61,0-87.22,0.03-130.82-0.01
		c-8.51-0.01-7.55,1.22-7.56-7.85C766.38,610.39,766.4,573.39,766.41,536.39z"/>
	<path class="st0" d="M973.11,745.05c2.03-11.83,7.59-21.93,10.81-32.81c0.83-2.82,2.39-3.92,5.59-3.91
		c44.04,0.13,88.09,0.12,132.13,0.02c4.44-0.01,5.52,1.17,3.71,5.36c-1.28,2.96-1.8,6.25-2.75,9.76c36.07,0,71.81,0,107.96,0
		c-1.13-3.91-1.99-7.51-3.24-10.96c-1.03-2.84-0.53-4.22,2.67-4.1c1.1,0.04,2.2-0.02,3.3-0.02c43.82,0,87.65,0.12,131.47-0.13
		c5.07-0.03,7.49,1.67,9.05,6.1c3.22,9.13,6.7,18.17,9.99,27.28c0.35,0.95,0.21,2.08,0.31,3.42
		C1247.13,745.05,1110.43,745.05,973.11,745.05z"/>
	<path class="st0" d="M1400.78,788.19c-2.54,0-4.71,0-6.88,0c-143.4,0-286.8,0.01-430.2,0.01c-8.39,0-8.27,0.03-5.56-7.99
		c2.05-6.06,5.19-11.82,5.52-18.39c0.09-1.72,1.05-2.26,2.54-2.29c2.2-0.04,4.4-0.08,6.61-0.08c136.35,0,272.7,0.03,409.05-0.13
		c5.69-0.01,8.98,1.01,10.89,6.99C1395.01,773.37,1399.19,779.78,1400.78,788.19z"/>
	<path class="st0" d="M598.22,665.68c2.98-1.51,4.97-1.05,6.9-1.05c45.8-0.03,91.6,0.02,137.4-0.14c4.43-0.02,7.26,1.14,9.57,5.08
		c4.08,6.94,8.74,13.54,14.32,20.06c0-6.64,0.21-13.29-0.08-19.91c-0.18-4.09,1.24-5.21,5.28-5.2c44.7,0.13,89.4,0.13,134.1,0.01
		c4.39-0.01,6.51,0.95,6.29,5.86c-0.34,7.69-0.03,15.41-0.12,23.12c-0.05,4.29-2.23,6.12-6.53,5.24c-2.65-0.54-5.25-0.39-7.86-0.39
		c-88.96-0.03-177.92-0.12-266.87,0.16c-6.78,0.02-11.78-1.48-15.27-7.1C610,682.81,604.96,674.03,598.22,665.68z"/>
	<path class="st0" d="M628.06,708.41c5.81,0,10.86,0,15.91,0c86.73,0,173.46-0.01,260.19-0.01c7.74,0,7.74,0.02,7.75,7.96
		c0,8.14-0.13,16.29,0.06,24.43c0.08,3.44-1.06,4.91-4.52,4.54c-1.31-0.14-2.64-0.02-3.96-0.02c-80.79,0-161.57-0.05-242.36,0.09
		c-6.97,0.01-11.37-1.59-14.9-8.55c-2.99-5.9-6.28-12.17-11.56-16.98C631.76,717.22,629.81,713.31,628.06,708.41z"/>
	<path class="st0" d="M940.7,824.83c3.61-3.37,4.25-7.09,5.55-10.49c2.86-7.48,2.8-7.5,10.24-7.5c148.04,0,296.09,0.03,444.13-0.12
		c5.5-0.01,8.99,0.81,10.3,6.81c0.8,3.65,2.87,7.02,4.7,11.3C1257.57,824.83,1099.83,824.83,940.7,824.83z"/>
	<path class="st1" d="M437.32,824.24c-3.7,0.92-7.46,0.4-11.18,0.4c-124.17,0.03-248.34,0.03-372.51,0.03c-2.2,0-4.41-0.08-6.6,0.01
		c-2.48,0.1-3.27-0.88-3.48-3.45c-1.21-15.1-1.29-15.1,13.56-15.1c124.39,0,248.78,0,373.17,0.03c2.35,0,4.87-0.73,7.02,0.95
		C437.3,812.82,437.31,818.53,437.32,824.24z"/>
	<path class="st0" d="M663.82,759.44c2.72,0,5.56,0,8.39,0c77.29,0.01,154.59,0,231.88,0.03c8.44,0,7.81-1.02,7.82,7.74
		c0,4.62,0.01,9.25,0,13.87c-0.02,7.1-0.03,7.1-7.42,7.12c-4.18,0.01-8.37,0-12.55,0c-66.5,0-133.01-0.1-199.51,0.14
		c-7.12,0.03-12.61-0.89-16.43-7.66c-3.15-5.58-7.34-10.57-10.93-15.92C664.14,763.38,663.17,761.8,663.82,759.44z"/>
	<path class="st1" d="M46.15,868.65c-2.64-4.95-0.68-10.26-1.18-15.39c-0.12-1.23,0.72-1.99,2.04-2.01
		c1.54-0.02,3.08-0.03,4.62-0.03c126.49,0,252.98-0.01,379.47,0.01c2.16,0,4.43-0.52,6.38,0.94c-0.07,2.41-0.15,4.83-0.21,7.24
		c-0.24,9.81,1.37,8.79-8.82,8.79c-125.04,0.03-250.09,0.01-375.13,0.04C50.93,868.25,48.49,867.74,46.15,868.65z"/>
	<path class="st1" d="M437.14,912.5c-2.2,0.09-4.39,0.27-6.59,0.27c-125.75,0.01-251.5,0.01-377.25,0.01
		c-1.98,0-3.97-0.04-5.95,0.01c-1.66,0.04-2.42-0.73-2.43-2.34c0-0.66,0-1.32-0.02-1.98c-0.46-11.82-0.47-11.83,11.38-11.83
		c123.77,0,247.54,0,371.31,0.02c3.28,0,6.61-0.45,9.84,0.58C437.33,902.33,437.24,907.42,437.14,912.5z"/>
	<path class="st1" d="M121.1,745.2c-23.12,0-46.25,0.01-69.37,0c-6.82,0-6.82-0.02-6.83-7.12c0-8.15,0.19-16.3-0.08-24.44
		c-0.13-4.02,0.59-5.63,5.24-5.61c47.79,0.19,95.58,0.18,143.37-0.01c4.36-0.02,5.01,1.46,4.91,5.26
		c-0.25,9.02-0.34,18.07,0.03,27.08c0.18,4.35-1.42,4.95-5.25,4.93C169.11,745.11,145.11,745.2,121.1,745.2z"/>
	<path class="st0" d="M509.58,745.3c-22.02,0-44.04-0.17-66.06,0.13c-5.1,0.07-6.32-1.46-6.1-6.29c0.39-8.57,0.23-17.17,0.04-25.76
		c-0.08-3.51,0.7-5.08,4.69-5.07c44.92,0.13,89.85,0.12,134.77,0.01c3.88-0.01,4.85,1.42,4.77,5.01c-0.19,9.02-0.3,18.07,0.04,27.08
		c0.17,4.43-1.72,4.97-5.43,4.94C554.06,745.23,531.82,745.3,509.58,745.3z"/>
	<path class="st1" d="M120.89,697.76c-23.55,0-47.11-0.11-70.66,0.1c-4.31,0.04-5.62-1.11-5.43-5.42c0.35-7.69,0.38-15.42-0.02-23.1
		c-0.22-4.28,1.27-5.02,5.17-4.99c23.11,0.18,46.22,0.09,69.34,0.09c24.65,0,49.31,0.11,73.96-0.09c4.03-0.03,5.3,0.89,5.1,5.05
		c-0.37,7.91-0.3,15.85-0.02,23.76c0.14,3.83-1.11,4.69-4.81,4.66c-24.21-0.17-48.42-0.09-72.64-0.09
		C120.89,697.74,120.89,697.75,120.89,697.76z"/>
	<path class="st0" d="M509.58,698.33c-21.59,0-43.18,0.01-64.77-0.01c-8.4-0.01-6.56,0.55-7.47-7.54
		c-0.81-7.18,0.23-14.19,0.11-21.26c-0.06-3.6,0.8-5.01,4.71-5c44.94,0.13,89.88,0.13,134.82,0.01c3.93-0.01,4.8,1.43,4.69,5.02
		c-0.22,7.92-0.29,15.87,0.03,23.79c0.18,4.3-1.55,5.09-5.39,5.07C554.08,698.25,531.83,698.33,509.58,698.33z"/>
	<path class="st0" d="M1069.31,896.98c1.03,5.21-1.72,9.36-3.06,13.8c-0.48,1.61-1.77,2.35-3.58,2.23
		c-1.75-0.12-3.52-0.02-5.28-0.02c-94.7,0-189.4-0.01-284.1,0.03c-4.86,0-9.43,0.59-11.04-6.07c-0.81-3.37-3.76-6.22-6.18-9.98
		C861.19,896.98,965.25,896.98,1069.31,896.98z"/>
	<path class="st1" d="M128.09,1017.89c0-22.61,0-45.23,0-67.84c0-8.03,0-8.03,7.89-8.03c1.54,0,3.09,0.08,4.62-0.01
		c2.3-0.14,3.2,0.92,3.01,3.14c-0.06,0.66,0,1.32,0,1.98c0,33.7,0.01,67.39-0.02,101.09c0,2.08,0.85,4.86-1.97,5.67
		c-2.01,0.58-5.56,1.15-6.19-0.24c-1.1-2.41-3.17-3.56-4.6-5.41c-6.51-8.43-13.27-16.67-19.9-25.01
		c-7.48-9.41-14.87-18.88-22.39-28.26c-5.32-6.63-10.79-13.14-17.17-20.88c0,22.04,0,42.44,0,62.83c0,1.98,0,3.96,0,5.95
		c0,12.71,0.01,12.64-12.79,11.3c-2.23-0.23-3.23-0.85-3.08-3.1c0.07-1.1,0.01-2.2,0.01-3.3c0-33.26-0.03-66.51,0.07-99.77
		c0.01-1.95-1.48-5.16,1.26-5.71c3.17-0.63,6.87-1.41,9.63,2.06c6.64,8.36,13.51,16.54,20.25,24.81
		c13.36,16.4,26.71,32.81,40.06,49.21C127.2,1018.22,127.65,1018.06,128.09,1017.89z"/>
	<path class="st0" d="M989.89,698.33c0.96-7.69,4.6-14.28,6.97-21.27c1.18-3.48,4.07-6.51,3.14-10.56c-0.39-1.7,0.5-1.8,1.65-1.86
		c1.54-0.07,3.08-0.15,4.62-0.15c43.16-0.01,86.33-0.01,129.49-0.01c1.31,0,2.62,0,4.96,0c-3.33,10.86-6.47,21.17-9.66,31.47
		c-0.51,1.64-1.71,2.49-3.51,2.38c-0.66-0.04-1.32,0.01-1.98,0.01C1080.44,698.33,1035.3,698.33,989.89,698.33z"/>
	<path class="st0" d="M1213.66,665.2c2.36-1.07,4.37-0.69,6.33-0.69c42.51-0.02,85.02,0.07,127.53-0.16
		c4.97-0.03,7.35,1.35,8.83,6.13c2.24,7.25,5.27,14.25,8,21.34c2.32,6.04,2.28,6.21-4.14,6.22c-39.21,0.02-78.41,0.01-117.62,0.01
		c-5.07,0-10.13-0.04-15.2,0.01c-2.18,0.02-3.8-0.47-4.52-2.86C1219.84,685.17,1216.73,675.16,1213.66,665.2z"/>
	<path class="st1" d="M120.89,787.81c-23.55,0-47.1-0.11-70.65,0.1c-4.3,0.04-5.69-1.07-5.44-5.43c0.37-6.36,0.26-12.77,0.02-19.14
		c-0.12-3.28,1.05-3.99,4.15-3.98c48.42,0.1,96.84,0.1,145.26,0.01c3.15-0.01,4.21,0.79,4.09,4.03c-0.24,6.59-0.28,13.21,0.01,19.8
		c0.16,3.79-1.11,4.72-4.81,4.7C169.32,787.73,145.1,787.81,120.89,787.81z"/>
	<path class="st0" d="M508.92,759.45c22.23,0,44.47,0.18,66.7-0.13c5.15-0.07,6.41,1.53,6.1,6.32c-0.39,5.92-0.3,11.89-0.01,17.82
		c0.2,3.89-1.33,4.84-4.95,4.81c-16.29-0.14-32.58-0.06-48.87-0.06c-27.96,0-55.91,0-83.87-0.01c-6.46,0-6.29-0.04-6.54-6.37
		c-0.25-6.3,0.89-12.62-1.11-18.91c-1.19-3.75,2.14-3.45,4.53-3.45c13.87-0.02,27.74-0.01,41.6-0.01
		C491.31,759.45,500.11,759.45,508.92,759.45z"/>
	<path class="st0" d="M803.59,806.83c33.68,0,67.35,0,101.03,0c7.26,0,7.35,0.02,7.27,7.01c-0.15,12.43,2.16,11.38-11.04,11.38
		c-61.41,0.02-122.82-0.14-184.22,0.2c-7.55,0.04-12.67-1.96-16.03-8.49c-1.56-3.03-5.9-5.98-4.46-8.81
		c1.51-2.97,6.37-1.24,9.73-1.25C738.44,806.79,771.01,806.83,803.59,806.83z"/>
	<path class="st1" d="M209.47,985.51c2.26-2.07,4.69-3.99,6.75-6.24c2.22-2.44,5.02-1.81,7.35-1.28c2.52,0.57,1.29,3.35,1.29,5.11
		c0.04,22.24-0.25,44.49-0.02,66.73c0.18,17.64-14.97,33.46-33.42,32.39c-5.99-0.35-11.93,0.23-17.74-2.53
		c-2.89-1.37-2.76-2.37-1.86-4.6c0.57-1.4,0.95-2.9,1.25-4.39c1.24-6.11,1.19-6.02,7.25-3.95c7.25,2.48,14.31,4.08,21.63-0.65
		c6.52-4.21,7.33-9.95,6.67-18.14c-6.51,5.92-13.56,6.44-21.1,6.68c-9.57,0.3-15.87-4.64-20.41-11.5
		c-5.71-8.61-8.95-18.59-8.4-29.11c0.49-9.42,2.54-18.63,8.18-26.6C176.25,974.21,198.82,972.56,209.47,985.51z M210.14,1015.54
		c0.2-6.01-0.57-11.9-3.11-17.35c-2.9-6.22-8.04-8.79-14.93-8.64c-6.79,0.15-11.46,3.29-13.67,9.39c-3.94,10.86-3.95,22-0.25,32.93
		c2.33,6.86,7.66,10.39,14.43,10.51c6.43,0.11,12.18-3.66,14.82-10.06C209.64,1026.97,210.39,1021.31,210.14,1015.54z"/>
	<path class="st1" d="M461.72,1050.21c-0.9,20-16.25,33.05-34.39,31.98c-2.63-0.15-5.36,0.39-7.89-0.15
		c-4.08-0.86-10.07-0.87-11.3-4.33c-1.1-3.11,1.61-7.85,2.06-12.06c0.22-2.08,2.45-1.06,3.71-0.36c4.87,2.71,10,3.85,15.62,3.69
		c10.78-0.3,17.56-8.92,14.97-20.27c-5.69,4.92-12.25,5.6-19.38,5.91c-11.74,0.5-19.47-5.84-23.63-14.88
		c-7.63-16.56-7.61-33.7,1.24-50.42c7.86-14.84,31.03-16.88,41.64-5.47c0.71,0.76,1.32,1.83,2.62,1.76
		c5.64-8.13,8.13-9.21,14.94-6.51C461.21,1002.8,461.63,1026.51,461.72,1050.21z M446.64,1015.59c0-2.47,0.16-5.34-0.06-8.18
		c-0.15-1.94-0.74-3.86-1.29-5.74c-2.47-8.41-8.22-12.41-17.2-12.05c-7.31,0.29-12.46,4.93-14.32,12.96
		c-2.06,8.9-1.93,17.84,0.04,26.71c1.73,7.8,7.78,12.84,15.23,13.07c7.16,0.23,13.32-4.18,15.87-11.52
		C446.58,1026.04,447.17,1021.06,446.64,1015.59z"/>
	<path class="st1" d="M950.94,1054.11c-2.62,0-5.44,0-8.27,0c-7.96,0-8.32,0.11-10.59-7.69c-2.16-7.44-4.92-14.66-7.29-22.01
		c-1.24-3.84-2.92-5.67-7.34-5.47c-8.78,0.39-17.6,0.33-26.39,0.03c-4.26-0.15-6,1.29-7.21,5.43c-2.53,8.63-5.92,17-8.83,25.52
		c-1.04,3.03-2.54,4.64-6.1,4.3c-3.91-0.38-7.89-0.09-12.35-0.09c5.43-14.28,10.71-28.1,15.93-41.93
		c5.33-14.14,10.57-28.31,15.92-42.44c3.11-8.19,6.71-16.22,9.41-24.54c1.36-4.21,4.14-3.01,6.74-3.17c2.87-0.17,5.04-0.18,6.4,3.68
		c5.49,15.62,11.61,31.02,17.47,46.51c7.36,19.47,14.7,38.95,22.02,58.43C950.8,1051.64,951.73,1052.52,950.94,1054.11z
		 M890.39,1006.35c9.77,0,18.68,0,28.17,0c-4.57-12.93-9.04-25.57-14.01-39.64C899.55,980.72,895.06,993.29,890.39,1006.35z"/>
	<path class="st1" d="M571.12,985.84c12.55-10.97,25.04-12.27,37.24-3.95c8.15,5.56,11.58,14.33,12.6,23.36
		c1.09,9.65,1.31,19.57-2.33,29.12c-7.38,19.37-25.57,24.46-42.19,17.37c-1.31-0.56-2.24-1.39-3.07-2.33
		c-2.52-2.86-4.56-1.71-6.5,0.61c-0.56,0.67-1.05,1.4-1.49,2.15c-1.76,3-4.69,2.09-7.11,1.78c-3.03-0.38-1.68-3.17-1.69-4.85
		c-0.09-35.03-0.01-70.06-0.15-105.08c-0.02-3.77,1.07-4.74,4.76-4.72c9.94,0.06,9.94-0.13,9.94,10.04
		C571.12,961.38,571.12,973.42,571.12,985.84z M605.65,1016.43c-0.12-5.83-0.11-11.1-1.82-16.15c-2.38-7.03-7.86-10.74-15.59-10.66
		c-7.56,0.07-12.16,3.43-14.6,10.69c-3.24,9.62-3.18,19.4-0.79,29.11c1.96,7.97,7.91,12.7,15.34,12.93
		c7.84,0.25,13.09-4.24,16.02-12.86C605.76,1024.96,605.01,1020.37,605.65,1016.43z"/>
	<path class="st0" d="M818.93,851.7c28.63,0,57.26,0,85.89,0.01c7.04,0,7.04,0.02,7.05,7.27c0,1.76-0.1,3.53,0.06,5.28
		c0.52,5.82,0.14,6.52-5.96,6.23c-6.08-0.29-12.09-1.33-18.23-1.31c-47.13,0.13-94.26-0.19-141.39,0.32
		c-8.1,0.09-13.73-1.31-16.66-9.06c-1.04-2.75-5.6-4.56-3.47-7.78c1.54-2.33,5.36-0.92,8.14-0.93
		C762.55,851.67,790.74,851.7,818.93,851.7z"/>
	<path class="st1" d="M756.05,1017.39c-0.25,10.54,2.74,18.65,12.57,22.63c7.45,3.02,14.88,1.82,21.61-2.1
		c2.26-1.32,5.18-4.05,6.76-3.36c3.79,1.65,4.73,6.44,7.25,9.67c0.76,0.98-1.05,2.14-2.02,2.77c-14.7,9.63-37.96,12.18-52.28-2.47
		c-9.4-9.62-12.71-22.29-10.61-35.68c1-6.34,3.39-12.27,6.94-18.08c4.39-7.17,10.75-10.73,17.79-12.7
		c10.25-2.88,20.49-1.82,30.07,3.94c11.31,6.79,15.71,21.4,14.85,32.57c-0.27,3.52-2.71,2.8-4.77,2.8
		c-14.52,0.03-29.05,0.02-43.57,0.02C759.34,1017.39,758.03,1017.39,756.05,1017.39z M757.51,1005.24c11.38,0,22.75,0,34.11,0
		c0.2-9.09-5.54-15.11-14.7-15.61C765.58,989,758.48,994.66,757.51,1005.24z"/>
	<path class="st1" d="M1312.69,1032.75c0.67,1.19,0.96,1.74,1.28,2.27c2.04,3.33,7.02,6.87,5.23,10.06
		c-2.51,4.48-8.18,6.61-13.53,7.95c-6.44,1.61-12.97,1.69-19.52,1.23c-15.2-1.08-27.67-13.39-29.99-27.98
		c-1.44-9.03-1.41-18.08,1.66-27.1c3.64-10.67,11.28-17.57,21.09-20.8c10.69-3.51,21.62-2.45,31.74,4.34
		c10.67,7.16,15.11,20.24,13.88,32.44c-0.34,3.4-2.79,2.17-4.43,2.18c-14.07,0.09-28.15,0.05-42.22,0.06
		c-6.79,0-7.34,1.18-5.62,8.09c5.07,20.26,27.98,19.08,38,9.47C1310.9,1034.37,1311.54,1033.81,1312.69,1032.75z M1290.17,1005.42
		c1.97,0,3.94,0,5.92,0c1.97,0,3.94,0.01,5.92,0.01c6.49-0.02,7.29-1.27,4.53-7.04c-3.07-6.43-10.32-9.76-18.9-8.69
		c-6.76,0.84-13.2,6.46-14.47,12.59c-0.44,2.12,0.02,3.25,2.55,3.18C1280.53,1005.31,1285.35,1005.41,1290.17,1005.42z"/>
	<path class="st0" d="M46.15,868.65c2.34-0.92,4.79-0.4,7.17-0.4c125.04-0.03,250.09-0.02,375.13-0.04c10.19,0,8.58,1.02,8.82-8.79
		c0.06-2.42,0.14-4.83,0.21-7.24c1.96-0.16,3.93-0.44,5.89-0.45c43.59-0.03,87.18-0.03,130.76-0.02c6.89,0,7.01,0.18,6.27,7.24
		c-0.05,0.44-0.03,0.88-0.06,1.32c-0.52,9-0.52,9-9.74,9c-42.27,0-84.53,0.01-126.8-0.01c-131.7-0.08-263.4-0.17-395.1-0.27
		C47.85,868.97,47,868.76,46.15,868.65z"/>
	<path class="st1" d="M281.16,1017.39c-7.48,0-14.97,0.21-22.44-0.09c-3.71-0.15-4.07,1.7-3.49,4.35
		c4.15,18.96,16.75,22.76,31.94,18.02c1.66-0.52,3.46-1.39,4.93-2.87c4.37-4.4,4.49-4.27,7.99,1.17c4.74,7.37,4.29,7.89-3.22,12.24
		c-9.73,5.64-20.7,5.9-30.4,3.64c-11.58-2.7-21.42-10.05-24.93-23.14c-3.4-12.72-3.96-25.42,2.63-36.95
		c7.09-12.42,18.61-19.11,36.75-16.23c13.44,2.14,21.83,9.66,26.1,22.35c1.71,5.09,0.95,10.22,0.98,15.35
		c0.02,3.02-2.23,2.1-3.74,2.12C296.56,1017.44,288.86,1017.39,281.16,1017.39z M291.88,1005.17c-0.62-9.38-6.4-15.1-15.45-15.54
		c-11.26-0.55-17.56,4.51-19.37,15.54C268.66,1005.17,280.26,1005.17,291.88,1005.17z"/>
	<path class="st1" d="M518.39,1017.39c-7.71,0-15.42,0.09-23.12-0.05c-2.84-0.05-4.3,0.69-3.27,3.7c1.46,4.24,1.72,8.87,4.71,12.6
		c7.77,9.69,23.99,10.78,32.89,1.98c2.18-2.15,3.43-3.44,5.8,0.24c6.55,10.11,6.93,10.37-4.29,15.25c-13.77,6-34.01,5.52-45.52-7.62
		c-6.16-7.04-9.75-15.26-9.42-25.13c0.27-7.95,0.34-15.52,4-23.08c7.22-14.94,19.81-18.94,33.25-18.56
		c14.48,0.41,26.61,9.88,30.38,23.2c0.96,3.39,1.39,6.86,1.65,10.22c0.49,6.29-0.85,7.25-7.26,7.26
		C531.6,1017.4,524.99,1017.39,518.39,1017.39z M493.54,1005.42c9.91,0,19.72,0.01,29.54-0.01c6.15-0.01,7.06-1.57,4.18-7.21
		c-1-1.96-2.36-3.6-4.16-4.97C511.65,984.58,496.9,990.44,493.54,1005.42z"/>
	<path class="st1" d="M1081.41,1054.37c-16.29,1.88-25.67-7.87-32.64-20.24c-7.09-12.58-2.97-36.88,7.29-47.62
		c8.58-8.98,19.54-10.85,31.34-9.48c21.95,2.54,33.83,25.01,29.86,46.59c-2.79,15.19-10.42,25-24.98,29.88
		C1088.55,1054.74,1084.94,1053.83,1081.41,1054.37z M1102.34,1015.71c0.65-3.6-0.49-7.22-1.38-10.81
		c-2.27-9.16-9.04-15.03-17.33-15.35c-10.17-0.39-16.29,3.8-19.66,13.87c-2.86,8.57-2.72,17.28,0.29,25.75
		c2.95,8.3,9.85,13.14,17.82,13.19c8.42,0.05,14.89-4.77,18.09-13.64C1101.67,1024.6,1102.77,1020.37,1102.34,1015.71z"/>
	<path class="st0" d="M1347.67,851.7c23.79,0,47.59,0.09,71.38-0.09c4.12-0.03,6.58,0.95,7.64,5.21c0.84,3.35,2.39,6.52,3.62,9.78
		c1.11,2.97-0.28,4.62-2.98,3.52c-3.91-1.59-7.79-0.94-11.66-0.95c-42.08-0.08-84.15-0.06-126.23-0.04c-3.96,0-7.95-0.11-11.87,0.27
		c-2.28,0.22-4.23-0.09-4.28-2.38c-0.08-3.43-1.37-6.22-2.65-9.27c-1.79-4.28-0.17-6.02,5-6.03c24.01-0.04,48.03-0.02,72.04-0.02
		C1347.67,851.71,1347.67,851.7,1347.67,851.7z"/>
	<path class="st0" d="M437.32,824.24c-0.01-5.71-0.01-11.42-0.02-17.13c6.37-0.09,12.75-0.26,19.12-0.27
		c39.6-0.02,79.2-0.02,118.8-0.01c6.36,0,6.46,0.04,6.38,6.51c-0.18,13.25,2.23,11.85-11.88,11.86c-42.02,0.05-84.04,0.03-126.06,0
		C441.52,825.21,439.23,825.86,437.32,824.24z"/>
	<path class="st0" d="M1007.95,851.7c22.66,0,45.33,0,67.99,0c7.23,0,7.23,0.02,5.33,6.5c-3.32,11.36-3.32,11.01-15.72,10.98
		c-45.55-0.12-91.1-0.04-136.64,0.13c-3.2,0.01-4.06-0.17-2.39-3.29c1.21-2.27-0.18-4.99,1.21-7.52c2.73-5,6.14-7.1,12.23-6.98
		C962.62,851.97,985.29,851.7,1007.95,851.7z"/>
	<path class="st1" d="M332.95,986.09c5.15-6.96,11.84-9.94,19.94-9.67c5.39,0.18,10.76-0.72,16.07,1.96
		c8.55,4.32,12.68,11.38,12.92,20.33c0.46,16.95,0.08,33.92,0.21,50.88c0.02,3.25-0.65,4.58-4.33,4.63
		c-10.3,0.13-10.29,0.33-10.29-9.81c0-12.78,0.02-25.55-0.01-38.33c-0.01-6.93-1.16-13.59-8.54-16.4
		c-12.19-4.63-24.02,3.52-24.33,16.77c-0.3,13.43-0.04,26.87-0.11,40.31c-0.04,8.43,1.03,7.3-7.37,7.32
		c-8.44,0.02-7.18,0.95-7.3-7.41c-0.04-2.86-0.01-5.73-0.01-8.59c0-18.28-0.05-36.56,0.08-54.85c0.01-1.82-1.71-4.86,1.68-5.39
		c2.9-0.45,6.2-0.95,8,2.67C330.5,982.39,331.73,984.11,332.95,986.09z"/>
	<path class="st1" d="M1193.13,986.25c0.13-4.34,3.88-5.39,6.32-6.59c9.79-4.8,20.23-5.41,30.1-0.44
		c8.91,4.48,11.69,12.95,11.74,22.4c0.08,15.62-0.16,31.25,0.14,46.87c0.09,4.75-1.44,5.88-5.94,5.73c-8.86-0.3-8.87-0.04-8.87-8.6
		c0-13.86,0.05-27.73-0.02-41.59c-0.05-10.16-4.49-14.47-14.55-14.39c-13.21,0.1-18.35,5.31-18.36,18.66
		c-0.02,13.42-0.16,26.85,0.08,40.27c0.07,4.11-0.73,5.78-5.32,5.67c-9.48-0.24-9.49,0.05-9.49-9.36c0-20.69-0.04-41.37,0.08-62.06
		c0.01-1.65-1.5-4.58,1.47-4.9c2.71-0.29,6.19-1.66,7.93,2.41c0.83,1.95,2.25,3.64,3.4,5.45
		C1192.26,985.94,1192.7,986.1,1193.13,986.25z"/>
	<path class="st1" d="M694.38,1015.73c0,11.01,0.06,22.03-0.07,33.04c-0.02,1.89,1.32,4.88-2.14,5.24c-2.75,0.28-6.29,1.03-7.68-2.2
		c-2.51-5.84-5.08-3.7-8.84-1.2c-9.58,6.4-20.34,6.76-30.63,2.78c-6.94-2.69-12.37-8.93-12.69-16.57
		c-0.77-18.68-0.39-37.42-0.46-56.13c0-1.28-0.23-2.85,1.71-2.89c3.74-0.08,7.5-0.22,11.22,0.03c2.78,0.19,1.69,2.66,1.7,4.16
		c0.08,13.43,0.05,26.87,0.05,40.31c0,1.54-0.03,3.08,0,4.63c0.23,9.87,3.37,14.3,11.68,16.51c5.85,1.56,15.17-2.27,18.33-8.37
		c2.14-4.13,2.8-8.97,2.82-13.72c0.06-12.99,0.16-25.99-0.06-38.98c-0.06-3.73,0.98-4.76,4.73-4.75
		c10.33,0.05,10.33-0.14,10.32,10.36C694.38,997.23,694.39,1006.48,694.38,1015.73z"/>
	<path class="st1" d="M1365.25,1029.81c3.99-7.6,6.01-14.39,8.05-21.04c2.92-9.53,7.87-18.31,9.95-28.13
		c0.62-2.93,3.09-2.93,5.61-2.97c10.38-0.15,10.49-0.18,7.05,9.38c-10.61,29.48-21.39,58.89-31.91,88.4
		c-1.83,5.14-4.39,8.04-10.23,6.76c-2.09-0.46-4.36,0.38-6.72-0.63c3.24-8.92,5.49-18.19,9.62-26.75c1.06-2.2,1.54-4.27,0.67-6.23
		c-8.85-19.98-14.75-41.08-23.32-61.17c-1.13-2.66-1.18-5.91-3.32-9.71c5.23,0,9.49,0.05,13.76-0.01c3.45-0.05,3.29,2.82,4.03,4.89
		c4.82,13.59,9.59,27.2,14.39,40.8C1363.45,1025.01,1364.07,1026.61,1365.25,1029.81z"/>
	<path class="st0" d="M1447.25,912.34c-2.37,1.1-4.59,0.64-6.74,0.64c-48.47,0.03-96.94-0.1-145.4,0.18
		c-5.51,0.03-7.48-1.61-8.66-6.76c-2.22-9.68-2.55-9.59,7.68-9.59c46.71,0,93.41,0.12,140.11-0.14c5.72-0.03,9.09,1.13,10.2,7.05
		C1445.01,906.66,1446.3,909.47,1447.25,912.34z"/>
	<path class="st0" d="M437.14,912.5c0.1-5.09,0.2-10.17,0.29-15.26c2.4-0.15,4.81-0.42,7.21-0.43c43.14-0.02,86.27-0.03,129.41,0
		c8.17,0.01,7.62-1.04,7.56,7.28c-0.07,10.5,1.24,8.85-8.54,8.86c-42.92,0.07-85.83,0.04-128.75,0.01
		C441.93,912.97,439.48,913.41,437.14,912.5z"/>
	<path class="st1" d="M1405.89,1046.71c3.69-3.82,4.87-8.43,8.49-11.47c5.05,4.1,10.16,8,17.33,7.41c2.25-0.19,4.32-0.75,6.08-1.83
		c4.59-2.82,5-6.98,1.42-11.18c-3.2-3.75-7.39-6.09-11.57-8.54c-8.42-4.96-15.85-10.74-18.61-20.96
		c-1.79-6.65,2.68-18.58,8.99-20.93c11.63-4.34,22.97-3.13,33.87,2.67c3.33,1.77,4.05,4.13,1.53,7.26
		c-0.93,1.16-1.69,2.52-2.22,3.91c-1.33,3.49-2.56,3.53-5.38,0.94c-4.67-4.3-10.7-4.9-16.85-4.49c-2.67,0.18-3.79,1.53-4.15,4.12
		c-0.8,5.71,2.5,9.03,6.65,11.82c4.86,3.26,9.89,6.27,14.76,9.51c10.48,6.99,11.66,15.9,10.2,23.68
		c-1.47,7.85-10.22,14.84-19.58,15.59c-7.08,0.57-14.21,0.66-21.29-1.68C1411.87,1051.31,1409.83,1048.28,1405.89,1046.71z"/>
	<path class="st1" d="M1027.4,1055.66c-8.89,0.5-16.64-2.26-21.23-11.54c-0.79-1.6-1.53-2.92-1.53-4.72
		c0.03-23.78,0.13-47.56-0.11-71.34c-0.04-4.25,1.26-5.06,5.18-4.99c9.39,0.16,9.7-0.03,9.35,9.15c-0.18,4.81,1.44,6.2,5.9,5.54
		c1.94-0.29,3.98,0.14,5.93-0.09c4-0.46,5.88,0.5,5.59,5.18c-0.52,8.26,0.61,6.59-6.56,6.77c-2.2,0.05-4.46-0.28-6.59,0.12
		c-2.07,0.39-3.96,1.3-3.84,4.24c0.56,12.96-1.02,25.97,0.89,38.9c1.19,8.03,3.14,10.02,10.9,9.59c4.34-0.24,5.53,1.25,5.1,5.13
		c-0.12,1.09-0.28,2.29,0.04,3.29c1.35,4.25-1,4.92-4.37,4.78C1030.74,1055.62,1029.41,1055.66,1027.4,1055.66z"/>
	<path class="st1" d="M978.03,989.96c-1.41,1.14-1.13,2.76-1.13,4.26c-0.02,12.52-0.08,25.04,0.02,37.56
		c0.06,7.5,3.66,10.74,11.38,10.89c1.49,0.03,4.38-1.27,4.21,1.27c-0.24,3.74,2.69,7.12,0.86,10.82c-0.21,0.43-1.14,0.7-1.74,0.72
		c-5.43,0.2-10.88,0.7-16.25-0.59c-10.16-2.45-12.91-10.09-13.4-19.29c0.03-6.37,0.16-12.73,0.09-19.1
		c-0.21-17.34,0.55-34.69-0.39-52.03c4.2-2.69,8.85-0.84,13.27-1.23c2.39-0.21,1.8,1.85,1.95,3.26c0.39,3.61-1.73,8.54,0.99,10.52
		c2.46,1.79,7.11,0.54,10.79,0.72c1.66,0.08,3.57-0.62,4.77,1.26c-0.69,3.16-0.67,6.31,0.01,9.47c-0.91,1.12-2.08,1.65-3.52,1.59
		C985.96,989.51,982,989.68,978.03,989.96z"/>
	<path class="st1" d="M725.7,996.54c0,17.4-0.16,34.81,0.11,52.21c0.07,4.49-1.37,5.53-5.59,5.45c-9.39-0.17-9.39,0.05-9.39-9.49
		c0-32.83,0-65.65,0-98.48c0-6.83,0-6.83,7.14-6.84c0.66,0,1.34,0.09,1.98-0.02c4.52-0.78,5.95,0.88,5.87,5.6
		C725.52,962.17,725.7,979.36,725.7,996.54z"/>
	<path class="st1" d="M1141.81,985.09c4.98-10.12,13.65-9.03,21.92-8.61c5.61,0.28,6.97,2.19,5.25,7.55
		c-0.85,2.66,1.19,6.24-1.7,7.85c-2.5,1.39-4.53-1.83-7.02-2.28c-9.72-1.79-15.32,2.75-15.47,13.02
		c-0.21,14.95-0.1,29.91-0.15,44.87c-0.02,6.56-0.04,6.56-6.56,6.63c-9,0.09-9,0.09-9-8.79c0-20.24-0.08-40.47,0.1-60.7
		c0.02-2.24-1.93-5.75,1.75-6.74c3.63-0.98,7.3-0.59,8.97,3.83C1140.2,982.51,1140.74,983.22,1141.81,985.09z"/>
	<path class="st0" d="M961.67,964.47c0.94,17.34,0.18,34.69,0.39,52.03c0.08,6.36-0.05,12.73-0.09,19.1
		c-1.33-7.18-0.53-14.43-0.56-21.64C961.35,997.46,961.57,980.97,961.67,964.47z"/>
	<path class="st0" d="M461.72,1050.21c-0.09-23.7-0.51-47.41,0.22-71.11C462.4,1002.8,462.8,1026.51,461.72,1050.21z"/>
	<path class="st0" d="M978.03,989.96c3.97-0.28,7.94-0.45,11.9,0.09C985.96,990.6,981.99,990.65,978.03,989.96z"/>
	<path class="st0" d="M993.45,988.46c-0.68-3.16-0.7-6.31-0.01-9.47C993.94,982.15,993.93,985.31,993.45,988.46z"/>
</g>
</svg>
