<?xml version="1.0" encoding="utf-8"?>
<!-- Generator: Adobe Illustrator 23.0.5, SVG Export Plug-In . SVG Version: 6.00 Build 0)  -->
<svg version="1.1" id="Layer_1" xmlns="http://www.w3.org/2000/svg" xmlns:xlink="http://www.w3.org/1999/xlink" x="0px" y="0px"
	 viewBox="0 0 500 500" style="enable-background:new 0 0 500 500;" xml:space="preserve">
<style type="text/css">
	.st0{fill:#3960AD;}
	.st1{fill:#19191B;}
</style>
<g>
	<path class="st0" d="M403.38,208.3c-3.88,12.66-7.75,25.32-11.62,37.94c-16.38,0-32.52,0-48.61,0c-0.86-1.61,0.29-2.65,0.77-3.89
		c1.29-3.33,2.81-6.55,3.85-10.02c1.57-5.26,3.96-10.28,5.9-15.43c1.81-4.82,3.13-9.86,5.34-14.49c2.11-4.41,3.15-9.16,5.12-13.6
		c1.71-3.85,2.69-8.02,4.34-11.9c2.12-4.96,3.21-10.35,6.03-15.05c19.83,0,39.52,0,59.58,0c10.46,27.94,20.97,56.01,31.57,84.33
		c-16.87,0-33.38,0-50.14,0c-3.85-12.58-7.73-25.25-11.61-37.91C403.72,208.29,403.55,208.29,403.38,208.3z"/>
	<path class="st0" d="M140.22,246.18c0-28.16,0-56.13,0-84.25c16.9,0,33.9,0,51.12,0c19,27.95,38.06,56,57.37,84.41
		c-1.29,0-2.12,0-2.95,0c-15.7,0-31.39-0.03-47.09,0.05c-2.44,0.01-4.46-0.15-5.38-2.85c-0.24-0.69-0.87-1.24-1.59-2.23
		c0,1.85,0,3.28,0,4.87C174.53,246.18,157.55,246.18,140.22,246.18z"/>
	<path class="st1" d="M54.83,246.22c-18.21,0-36.24,0-54.38,0c0-28.14,0-56.2,0-84.41c18.08,0,36.16,0,54.38,0
		C54.83,189.95,54.83,218.11,54.83,246.22z"/>
	<path class="st0" d="M309.16,246.23c-17.27,0-34.35,0-51.56,0c0-28.17,0-56.21,0-84.32c17.26,0,34.39,0,51.56,0
		C309.16,190.14,309.16,218.18,309.16,246.23z"/>
	<path class="st0" d="M330.93,278.31c1.58-4.44,3.08-8.68,4.57-12.89c16.76,0,33.44,0,50.37,0c-0.5,1.83-0.94,3.46-1.42,5.21
		c12.82,0,25.51,0,38.41,0c-0.48-1.72-0.95-3.39-1.46-5.24c17.29,0,34.29,0,51.49,0c2.04,4.05,3.35,8.47,5.05,12.92
		C428.88,278.31,380.04,278.31,330.93,278.31z"/>
	<path class="st0" d="M324.8,293.55c1.45-3.38,1.78-6.83,3.33-10.01c50.43,0,100.89,0,151.56,0c1.31,3.22,2.64,6.5,4.06,10.01
		C430.76,293.55,377.99,293.55,324.8,293.55z"/>
	<path class="st0" d="M309.21,249.81c0,3.91,0,7.71,0,11.7c-34.62,0-69.1,0-103.75,0c-2.7-3.64-5.22-7.48-7.76-11.71
		c18.08,0,35.77,0,53.73,0c1.81,2.85,3.7,5.83,5.6,8.81c0.14-0.04,0.29-0.09,0.43-0.13c0-2.84,0-5.69,0-8.68
		C274.82,249.81,291.95,249.81,309.21,249.81z"/>
	<path class="st0" d="M309.18,265.43c0,4.35,0,8.55,0,12.71c-1,0.48-1.96,0.29-2.88,0.29c-28.94,0.01-57.88-0.01-86.83,0.05
		c-1.94,0-3.22-0.54-4.21-2.2c-2.17-3.64-5.14-6.77-7.1-10.85C241.93,265.43,275.49,265.43,309.18,265.43z"/>
	<path class="st0" d="M486.2,300.41c0.91,2.15,1.76,4.14,2.7,6.34c-56.35,0-112.58,0-168.81,0c0-1.1,1.67-4.95,2.81-6.34
		C377.23,300.41,431.63,300.41,486.2,300.41z"/>
	<path class="st1" d="M140.19,322.21c-0.21,0.12-0.42,0.25-0.63,0.37c0,0,0.05,0,0.05,0c-1.01-0.06-2.02-0.17-3.04-0.17
		C92.23,322.4,47.9,322.4,3.56,322.4c-1.16,0-2.32,0-3.56,0c0-2.15,0-4.08,0-6.23c0.87,0,1.63,0,2.39,0c45.12,0,90.25,0,135.37,0.01
		c0.84,0,1.74-0.23,2.51,0.33C140.25,318.41,140.22,320.31,140.19,322.21z"/>
	<path class="st1" d="M140,306.59c-0.7,0.05-1.4,0.14-2.1,0.14c-44.99,0.01-89.98,0.01-134.97,0.01c-0.93,0-1.85,0-2.91,0
		c0-2.29,0-4.36,0-6.63c0.7,0,1.31,0,1.92,0c45.62,0,91.23,0,136.85,0c0.24,0,0.47,0.02,0.7,0.04
		C140.43,302.23,139.75,304.45,140,306.59z"/>
	<path class="st0" d="M309.23,283.68c0,3.26,0,6.44,0,9.85c-27.38,0-54.66,0-82.16,0c-1.94-3.04-4.68-5.93-6.46-9.85
		C250.3,283.68,279.71,283.68,309.23,283.68z"/>
	<path class="st1" d="M140.02,338c-0.55,0.04-1.09,0.1-1.64,0.1c-45.36,0-90.71,0-136.07,0c-0.54,0-1.08,0-1.75,0
		c-0.46-1.91-0.11-3.74-0.23-5.77c1.04,0,1.88,0,2.72,0c44.73,0,89.46,0,134.18,0.01c1.01,0,2.04-0.17,3.03,0.24
		C140.19,334.39,140.11,336.2,140.02,338z"/>
	<path class="st1" d="M0.41,278.26c0-4.35,0-8.57,0-12.94c18.14,0,36.23,0,54.46,0c0,4.24,0,8.51,0,12.94
		C36.81,278.26,18.72,278.26,0.41,278.26z"/>
	<path class="st0" d="M191.56,265.45c0,4.35,0,8.49,0,12.82c-17.05,0-34.02,0-51.14,0c0-4.21,0-8.42,0-12.82
		C157.39,265.45,174.36,265.45,191.56,265.45z"/>
	<path class="st1" d="M0.44,261.36c0-3.95,0-7.76,0-11.67c18.18,0,36.27,0,54.47,0c0,3.89,0,7.7,0,11.67
		C36.8,261.36,18.72,261.36,0.44,261.36z"/>
	<path class="st0" d="M140.44,261.52c-0.4-4-0.55-7.87-0.1-11.74c16.92,0,33.97,0,51.16,0c0,3.93,0,7.74,0,11.74
		C174.54,261.52,157.58,261.52,140.44,261.52z"/>
	<path class="st0" d="M257.16,338.05c-0.99-1.88-2.77-3.17-3.25-5.5c37.44,0,74.72,0,112.32,0c-0.76,2-1.43,3.76-2.09,5.5
		C328.39,338.05,292.81,338.05,257.16,338.05z"/>
	<path class="st0" d="M466.95,249.79c1.48,3.92,2.95,7.81,4.47,11.81c-17.09,0-33.91,0-50.92,0c-1.21-3.9-2.41-7.75-3.68-11.81
		C433.56,249.79,450.13,249.79,466.95,249.79z"/>
	<path class="st0" d="M390.87,249.74c-1.23,3.97-2.42,7.83-3.65,11.81c-16.69,0-33.28,0-50.08,0c0.68-4.16,2.76-7.86,4.41-11.81
		C357.96,249.74,374.31,249.74,390.87,249.74z"/>
	<path class="st1" d="M0.42,293.45c0-3.34,0-6.54,0-9.88c18.14,0,36.23,0,54.46,0c0,3.21,0,6.47,0,9.88
		C36.79,293.45,18.71,293.45,0.42,293.45z"/>
	<path class="st0" d="M191.68,293.62c-17.31,0-34.22,0-51.4,0c0-3.36,0-6.61,0-9.92c16.96,0,34.2,0,51.4,0
		C191.68,287.09,191.68,290.25,191.68,293.62z"/>
	<path class="st0" d="M309.27,300.46c0,2.18,0,4.05,0,5.83c-0.65,0.84-1.48,0.64-2.24,0.64c-22.9,0.01-45.81,0.01-68.71,0.01
		c-1.97,0-4.34-1.95-5.19-4.24c-0.26-0.71-0.5-1.43-0.77-2.23C257.98,300.46,283.52,300.46,309.27,300.46z"/>
	<path class="st0" d="M309.15,316.47c0.32,2.16,0.25,4.21,0.05,6.17c-2.1,1.04-3.89-0.05-5.71-0.05c-17.25,0-34.49,0-51.74,0.01
		c-0.54,0-1.1,0.04-1.62,0.18c-2.26,0.62-4.06,0.54-5.03-2.14c-0.5-1.38-1.82-2.42-2.29-4.16
		C265.08,316.47,287.06,316.47,309.15,316.47z"/>
	<path class="st0" d="M140,306.59c-0.25-2.14,0.43-4.36-0.5-6.45c1.25,0.06,2.49,0.18,3.73,0.18c15.23,0.01,30.45,0.01,45.68,0.01
		c0.78,0,1.56,0,2.53,0c0,2.19,0,4.26,0,6.31c-0.67,0.46-1.4,0.28-2.08,0.28c-15.78,0.01-31.55,0.01-47.33,0.01
		C141.34,306.93,140.61,307.12,140,306.59z"/>
	<path class="st0" d="M437.92,322.53c0.77-2.38-1.7-3.87-0.57-6.08c18.14,0,36.38,0,54.65,0c0.89,2.02,2.11,3.86,2.16,6.08
		C475.53,322.53,456.92,322.53,437.92,322.53z"/>
	<path class="st0" d="M370.18,316.48c-0.35,1.69-0.59,3.22-1.02,4.69c-0.27,0.94-0.75,1.51-2.11,1.5
		c-16.44-0.12-32.88-0.07-49.33-0.19c-1.13-0.01-2.51,1.47-3.62-0.42c1.71-1.51,0.41-4.48,2.66-5.58
		C334.67,316.48,352.37,316.48,370.18,316.48z"/>
	<path class="st0" d="M498.14,332.52c0.69,1.79,1.77,3.47,1.86,5.57c-18.82,0-37.62,0-56.58,0c-0.24-1.89-1.23-3.54-1.17-5.57
		C460.87,332.52,479.44,332.52,498.14,332.52z"/>
	<path class="st0" d="M140.02,338c0.08-1.81,0.17-3.62,0.25-5.42c0.53-0.08,1.06-0.23,1.6-0.23c15.92-0.01,31.83-0.01,47.75,0
		c0.61,0,1.23,0.08,1.91,0.12c0,1.89,0,3.66,0,5.34c-0.49,0.48-0.98,0.35-1.43,0.35c-16.15,0.01-32.3,0.01-48.45,0
		C141.11,338.17,140.57,338.06,140.02,338z"/>
	<path class="st0" d="M140.19,322.21c0.03-1.9,0.06-3.8,0.09-5.7c0.93-0.06,1.86-0.18,2.8-0.18c15.3-0.01,30.6-0.01,45.9-0.01
		c0.78,0,1.56,0,2.42,0c0.45,2.06,0.19,4,0.18,5.86c-0.58,0.61-1.24,0.4-1.84,0.4c-15.85,0.01-31.7,0.01-47.54,0
		C141.51,322.58,140.76,322.83,140.19,322.21z"/>
	<path class="st0" d="M139.61,322.57c0,0-0.05,0-0.05,0C139.57,322.57,139.59,322.57,139.61,322.57z"/>
</g>
</svg>
